HIERARCHY
ROOT Hips
{
	OFFSET 0.00000 0.00000 0.00000
	CHANNELS 6 Xposition Yposition Zposition Zrotation Yrotation Xrotation 
	JOINT LHipJoint
	{
		OFFSET 0 0 0
		CHANNELS 3 Zrotation Yrotation Xrotation
		JOINT LeftUpLeg
		{
			OFFSET 1.77779 -1.88989 0.48267
			CHANNELS 3 Zrotation Yrotation Xrotation
			JOINT LeftLeg
			{
				OFFSET 2.53442 -6.96327 0.00000
				CHANNELS 3 Zrotation Yrotation Xrotation
				JOINT LeftFoot
				{
					OFFSET 2.71068 -7.44755 0.00000
					CHANNELS 3 Zrotation Yrotation Xrotation
					JOINT LeftToeBase
					{
						OFFSET 0.17992 -0.49431 2.22524
						CHANNELS 3 Zrotation Yrotation Xrotation
						End Site
						{
							OFFSET 0.00000 -0.00000 1.14687
						}
					}
				}
			}
		}
	}
	JOINT RHipJoint
	{
		OFFSET 0 0 0
		CHANNELS 3 Zrotation Yrotation Xrotation
		JOINT RightUpLeg
		{
			OFFSET -1.58469 -1.88989 0.48267
			CHANNELS 3 Zrotation Yrotation Xrotation
			JOINT RightLeg
			{
				OFFSET -2.60386 -7.15404 0.00000
				CHANNELS 3 Zrotation Yrotation Xrotation
				JOINT RightFoot
				{
					OFFSET -2.73334 -7.50979 0.00000
					CHANNELS 3 Zrotation Yrotation Xrotation
					JOINT RightToeBase
					{
						OFFSET -0.25618 -0.70384 2.21822
						CHANNELS 3 Zrotation Yrotation Xrotation
						End Site
						{
							OFFSET -0.00000 -0.00000 1.16381
						}
					}
				}
			}
		}
	}
	JOINT LowerBack
	{
		OFFSET 0 0 0
		CHANNELS 3 Zrotation Yrotation Xrotation
		JOINT Spine
		{
			OFFSET 0.03410 2.01612 -0.22230
			CHANNELS 3 Zrotation Yrotation Xrotation
			JOINT Spine1
			{
				OFFSET 0.03465 2.03012 0.00937
				CHANNELS 3 Zrotation Yrotation Xrotation
				JOINT Neck
				{
					OFFSET 0 0 0
					CHANNELS 3 Zrotation Yrotation Xrotation
					JOINT Neck1
					{
						OFFSET -0.00219 1.70459 0.20857
						CHANNELS 3 Zrotation Yrotation Xrotation
						JOINT Head
						{
							OFFSET 0.02518 1.72339 -0.22179
							CHANNELS 3 Zrotation Yrotation Xrotation
							End Site
							{
								OFFSET 0.00282 1.74122 -0.09823
							}
						}
					}
				}
				JOINT LeftShoulder
				{
					OFFSET 0 0 0
					CHANNELS 3 Zrotation Yrotation Xrotation
					JOINT LeftArm
					{
						OFFSET 3.36358 1.00547 -0.37661
						CHANNELS 3 Zrotation Yrotation Xrotation
						JOINT LeftForeArm
						{
							OFFSET 5.06507 -0.00000 0.00000
							CHANNELS 3 Zrotation Yrotation Xrotation
							JOINT LeftHand
							{
								OFFSET 3.60196 -0.00000 0.00000
								CHANNELS 3 Zrotation Yrotation Xrotation
								JOINT LeftFingerBase
								{
									OFFSET 0 0 0
									CHANNELS 3 Zrotation Yrotation Xrotation
									JOINT LeftHandIndex1
									{
										OFFSET 0.45035 -0.00000 0.00000
										CHANNELS 3 Zrotation Yrotation Xrotation
										End Site
										{
											OFFSET 0.36308 -0.00000 0.00000
										}
									}
								}
								JOINT LThumb
								{
									OFFSET 0 0 0
									CHANNELS 3 Zrotation Yrotation Xrotation
									End Site
									{
										OFFSET 0.36862 -0.00000 0.36862
									}
								}
							}
						}
					}
				}
				JOINT RightShoulder
				{
					OFFSET 0 0 0
					CHANNELS 3 Zrotation Yrotation Xrotation
					JOINT RightArm
					{
						OFFSET -3.50159 0.80383 -0.71526
						CHANNELS 3 Zrotation Yrotation Xrotation
						JOINT RightForeArm
						{
							OFFSET -5.36394 -0.00000 0.00000
							CHANNELS 3 Zrotation Yrotation Xrotation
							JOINT RightHand
							{
								OFFSET -3.58035 -0.00000 0.00000
								CHANNELS 3 Zrotation Yrotation Xrotation
								JOINT RightFingerBase
								{
									OFFSET 0 0 0
									CHANNELS 3 Zrotation Yrotation Xrotation
									JOINT RightHandIndex1
									{
										OFFSET -0.66375 -0.00000 0.00000
										CHANNELS 3 Zrotation Yrotation Xrotation
										End Site
										{
											OFFSET -0.53513 -0.00000 0.00000
										}
									}
								}
								JOINT RThumb
								{
									OFFSET 0 0 0
									CHANNELS 3 Zrotation Yrotation Xrotation
									End Site
									{
										OFFSET -0.54330 -0.00000 0.54330
									}
								}
							}
						}
					}
				}
			}
		}
	}
}
MOTION
Frames: 12
Frame Time: .0083333
0.3861 16.9038 -30.4282 0 0 0 0 0 0 -21 0 0 0 0 0 0 0 0 0 0 0 0 0 0 21 0 0 0 0 0 0 0 0 0 0 0 0 0 0 0 0 0 0 0 0 0 0 -16 0 0 21 0 0 11 0 0 0 -8 0 0 0 0 0 0 0 0 0 0 0 0 0 0 0 0 0 0 0 0 8 0 0 0 0 0 0 0 0 0 0 0 0 0 0 0 0 0
0.3861 16.9038 -30.4282 -5.6420 0.1558 3.9725 0.0000 0.0000 0.0000 -8.3745 -5.0918 -29.4891 22.3543 19.8666 96.8984 -0.2598 -11.9570 12.7853 0.0103 0.6559 1.8026 0.0000 0.0000 0.0000 34.2031 17.8416 -17.3311 -7.2731 -15.5576 49.8999 -2.2237 -0.7435 -28.5016 -0.0403 -1.2950 3.5609 2.5111 1.2927 17.9486 3.4998 2.5640 0.6856 1.7176 1.1991 -9.4046 -1.9348 -3.4510 -21.9842 2.1490 -4.3526 8.1627 0.5101 -1.9874 6.0817 0.0000 -0.0000 0.0000 -85.3380 19.9170 42.2189 112.2684 -58.0408 -79.1582 -0.0000 0.0000 -27.4460 30.4751 4.5447 2.6696 -7.1250 0.0000 -0.0000 3.1800 35.2348 -0.7637 0.0000 -0.0000 0.0000 85.7927 -4.7279 42.1665 -103.1938 59.3319 -71.4005 0.0000 -0.0000 -7.9097 -29.4327 36.6998 -18.6337 7.1250 -0.0000 -0.0000 2.3347 10.5483 2.7247
0.3948 16.9282 -29.9873 -5.6245 0.7344 4.3052 0.0000 0.0000 0.0000 -8.2092 -6.2815 -31.5589 22.4274 19.8581 97.1135 -0.3453 -11.7396 10.2414 0.0297 -1.1119 -3.0568 0.0000 0.0000 0.0000 34.5469 16.7479 -15.6006 -6.9366 -15.2783 48.6342 -2.3649 -0.6594 -29.3605 -0.0495 -1.4364 3.9504 2.7379 1.2035 17.7491 3.4992 2.5082 0.2189 1.6068 1.1590 -9.7983 -2.2374 -3.4417 -20.7267 2.4168 -4.3079 7.6388 0.6697 -1.9674 5.7304 0.0000 -0.0000 0.0000 -85.2862 22.0486 42.5474 113.3509 -57.8360 -80.0755 -0.0000 0.0000 -27.5763 30.2639 3.7185 2.1672 -7.1250 0.0000 -0.0000 2.9980 34.2713 -0.7902 0.0000 -0.0000 0.0000 85.7552 -4.3202 42.8530 -105.6611 59.0526 -73.5198 0.0000 -0.0000 -8.7249 -29.3821 36.2621 -18.4197 7.1250 -0.0000 -0.0000 2.2616 10.0846 2.6245
0.4073 16.9663 -29.5332 -5.4776 1.1724 4.7741 0.0000 0.0000 0.0000 -8.2748 -7.4557 -33.6722 22.2995 19.8727 96.7370 -0.3132 -10.7411 8.4944 0.0297 -1.1123 -3.0579 0.0000 0.0000 0.0000 34.7285 15.7705 -13.7482 -6.5370 -14.9293 47.1006 -2.4393 -1.0239 -29.9435 -0.0164 -0.8275 2.2742 2.9965 1.3052 17.0973 3.2843 2.6450 0.1172 1.2025 1.2096 -9.5208 -1.9579 -3.6015 -20.7488 2.3728 -4.5813 7.3074 0.5844 -2.0968 5.6261 -0.0000 -0.0000 0.0000 -84.7297 23.2959 43.3014 114.5811 -57.5890 -81.1155 -0.0000 0.0000 -27.9294 29.7850 3.5865 2.0506 -7.1250 0.0000 -0.0000 2.6024 34.1018 -0.6964 -0.0000 -0.0000 0.0000 85.7775 -2.9418 43.4845 -107.6809 58.7852 -75.2496 0.0000 -0.0000 -10.1340 -29.6989 35.5686 -18.3542 7.1250 -0.0000 -0.0000 1.9375 9.4628 2.2309
0.4182 17.0130 -29.0794 -5.5181 1.5473 5.1731 0.0000 0.0000 0.0000 -8.1148 -8.5563 -35.8100 22.0790 19.8961 96.0887 -0.2362 -9.3444 7.3795 0.0014 -0.2441 -0.6708 0.0000 0.0000 0.0000 35.1331 14.9801 -11.7437 -6.1396 -14.5622 45.5393 -2.3834 -1.5262 -29.7826 -0.0007 -0.1662 0.4567 3.2146 1.4314 16.5798 3.2703 2.8425 -0.1839 1.0257 1.2929 -9.5498 -1.9830 -3.7414 -19.7961 2.3707 -4.7653 6.7010 0.5879 -2.2003 5.2894 0.0000 0.0000 0.0000 -84.4659 25.0105 43.9103 115.9863 -57.2879 -82.2999 -0.0000 0.0000 -28.5223 29.3162 3.4576 1.9397 -7.1250 0.0000 -0.0000 2.2163 33.9375 -0.6018 0.0000 0.0000 0.0000 85.8505 -3.0123 43.4155 -110.7833 58.3033 -77.8963 0.0000 -0.0000 -10.4476 -29.4264 35.9232 -18.3117 7.1250 -0.0000 -0.0000 2.1619 9.7491 2.4984
0.4308 17.0733 -28.6259 -5.6131 2.1256 5.4489 0.0000 0.0000 0.0000 -7.8856 -9.9177 -37.7895 21.7006 19.9305 94.9777 -0.1928 -8.2466 6.0030 0.0020 -0.2919 -0.8020 0.0000 0.0000 0.0000 35.6216 14.1111 -9.7349 -5.7361 -14.1677 43.9134 -2.2328 -1.7656 -28.9325 -0.0001 0.0639 -0.1757 3.4439 1.3447 16.4626 3.4054 2.8175 -0.8380 1.0515 1.2628 -10.2054 -2.6712 -3.7772 -17.6805 2.8258 -4.7345 6.0629 0.8805 -2.1947 4.7869 -0.0000 -0.0000 0.0000 -84.7283 27.4874 44.0260 117.3934 -56.9654 -83.4817 -0.0000 0.0000 -29.1444 29.4810 3.6421 2.0567 -7.1250 0.0000 -0.0000 2.3523 34.1546 -0.6264 -0.0000 -0.0000 0.0000 85.5425 -3.5074 43.9778 -113.6169 57.7839 -80.3007 0.0000 -0.0000 -10.9957 -29.2234 35.9948 -18.1996 7.1250 -0.0000 -0.0000 2.2855 9.7641 2.6419
0.4476 17.1472 -28.1660 -5.5733 2.7260 5.7843 0.0000 0.0000 0.0000 -7.8501 -11.2593 -39.2632 21.1839 19.9664 93.4634 -0.1825 -7.6423 4.0645 0.0496 -1.4375 -3.9533 0.0000 0.0000 0.0000 35.9467 13.2805 -7.8499 -5.3580 -13.7760 42.3475 -2.0932 -1.4912 -27.9286 -0.0042 0.4185 -1.1500 4.0721 1.4751 16.1868 3.0397 3.0472 -0.6624 0.2506 1.3352 -9.7975 -2.4032 -4.0485 -19.6427 3.1192 -5.1601 6.6487 0.8527 -2.3486 5.2903 -0.0000 -0.0000 0.0000 -83.8357 27.7454 44.8864 118.2218 -56.7655 -84.1754 -0.0000 0.0000 -29.5740 29.6860 3.5376 2.0146 -7.1250 0.0000 -0.0000 2.5206 34.0421 -0.6782 -0.0000 -0.0000 0.0000 86.0878 -2.0241 43.6819 -115.9743 57.2906 -82.2898 0.0000 -0.0000 -11.6201 -29.6620 36.0652 -18.5350 7.1250 -0.0000 -0.0000 2.0690 9.9638 2.3972
0.4653 17.2415 -27.6931 -5.4076 3.1340 6.1657 0.0000 0.0000 0.0000 -8.0535 -12.4579 -40.5179 20.4659 19.9948 91.3623 -0.1648 -7.1822 2.3291 0.0678 -1.6798 -4.6217 0.0000 0.0000 0.0000 36.0750 12.4501 -6.0452 -5.0044 -13.3888 40.8417 -1.7814 -2.3237 -26.1443 -0.0106 0.6662 -1.8308 4.2594 1.6671 15.4775 2.9019 3.2744 -0.6103 -0.0352 1.4421 -9.3109 -2.3089 -4.2935 -19.9923 3.0624 -5.4884 6.4286 0.7823 -2.5081 5.2783 0.0000 0.0000 0.0000 -83.6047 28.4322 45.2995 118.9885 -56.5735 -84.8160 -0.0000 0.0000 -29.6403 29.6438 3.4133 1.9406 -7.1250 0.0000 -0.0000 2.4853 33.8978 -0.6773 0.0000 0.0000 0.0000 86.0409 -1.1688 43.6191 -118.2866 56.7495 -84.2296 0.0000 -0.0000 -12.1124 -30.1490 36.1821 -18.9264 7.1250 -0.0000 -0.0000 1.8384 10.2275 2.1366
0.4933 17.3374 -27.1951 -5.3655 2.7532 6.4007 0.0000 0.0000 0.0000 -8.3362 -12.8183 -41.2110 19.6237 19.9966 88.8997 -0.1443 -7.6280 -1.0624 0.3048 -3.5495 -9.8125 0.0000 0.0000 0.0000 36.2167 11.9262 -3.9558 -4.7053 -13.0441 39.5336 -1.5415 -1.9974 -24.2527 -0.0720 1.7311 -4.7632 4.2465 2.2079 11.8629 3.1396 3.6806 0.9216 0.3030 1.7401 -5.6266 -2.6362 -4.6514 -18.8782 2.9387 -5.8295 3.9688 0.8095 -2.7236 4.3443 0.0000 -0.0000 0.0000 -84.2934 27.3484 45.2439 119.2566 -56.5048 -85.0397 -0.0000 0.0000 -29.7221 29.0126 3.2607 1.8068 -7.1250 0.0000 -0.0000 1.9669 33.7024 -0.5452 0.0000 -0.0000 0.0000 85.2874 1.3168 43.4041 -120.1702 56.2644 -85.8005 0.0000 -0.0000 -12.4425 -29.9909 35.7556 -18.6361 7.1250 -0.0000 -0.0000 1.8244 9.7411 2.1078
0.5079 17.4658 -26.7185 -5.3266 2.7710 6.5301 0.0000 0.0000 0.0000 -8.4997 -13.5515 -41.6488 18.6244 19.9546 85.9750 -0.0932 -6.9142 -2.0717 0.2075 -2.9332 -8.0929 0.0000 0.0000 0.0000 36.2861 11.0254 -2.2505 -4.4441 -12.7290 38.3625 -1.2202 -1.7609 -21.5720 -0.1334 2.3541 -6.4852 4.7471 2.2116 14.6781 2.5323 4.0061 -0.7947 -0.8384 1.7672 -8.9758 -1.8057 -4.6629 -19.6023 2.6919 -6.0506 5.7669 0.5444 -2.8075 4.9943 -0.0000 -0.0000 0.0000 -83.4076 30.9264 44.9792 120.7257 -56.1134 -86.2621 -0.0000 0.0000 -30.1794 27.8000 3.1995 1.6856 -7.1250 0.0000 -0.0000 0.9739 33.5945 -0.2724 -0.0000 -0.0000 0.0000 86.1983 -0.4651 44.0412 -122.1772 55.7013 -87.4641 0.0000 -0.0000 -12.1938 -29.1673 34.7765 -17.6587 7.1250 -0.0000 -0.0000 2.0486 8.4917 2.3300
0.5192 17.5810 -26.2567 -5.2731 2.9535 6.6067 0.0000 0.0000 0.0000 -8.6297 -14.4136 -42.0406 17.5567 19.8563 82.8399 -0.0651 -6.7028 -2.8300 0.1462 -2.4641 -6.7900 0.0000 0.0000 0.0000 36.3090 10.0573 -0.8045 -4.2317 -12.4625 37.3883 -0.8860 -1.7337 -18.4879 -0.2040 2.9080 -8.0226 4.9353 2.3144 14.9911 2.3559 4.2062 -1.2039 -1.2001 1.8263 -9.5696 -1.8783 -4.6994 -19.0960 2.9204 -6.1228 5.9760 0.6273 -2.8311 4.9946 0.0000 -0.0000 0.0000 -83.4356 32.5778 44.5606 121.3821 -55.9303 -86.8063 -0.0000 0.0000 -30.4872 27.0479 2.9786 1.5198 -7.1250 0.0000 -0.0000 0.3624 33.3232 -0.1037 0.0000 -0.0000 0.0000 86.2921 -0.5159 44.3698 -123.5423 55.2897 -88.5891 0.0000 -0.0000 -12.0304 -29.1178 34.3841 -17.4614 7.1250 -0.0000 -0.0000 1.9916 8.0713 2.2528
0.5360 17.6961 -25.7831 -5.3009 3.0939 6.7019 0.0000 0.0000 0.0000 -8.6965 -15.1786 -42.1852 16.3944 19.6854 79.4045 -0.0655 -6.9620 -3.0900 0.0415 -1.3143 -3.6141 0.0000 0.0000 0.0000 36.2324 8.9410 0.4189 -4.0342 -12.2057 36.4637 -0.5850 -1.4460 -15.0425 -0.2345 3.1168 -8.6042 5.1710 2.3982 14.8001 2.3035 4.3530 -1.3882 -1.4145 1.8789 -9.6351 -1.9791 -4.6860 -18.4269 3.0177 -6.0971 5.7458 0.6921 -2.8241 4.8245 0.0000 0.0000 0.0000 -83.9283 33.8268 43.7570 121.6508 -55.8538 -87.0288 -0.0000 0.0000 -30.4173 27.0638 3.1499 1.6082 -7.1250 0.0000 -0.0000 0.3724 33.5159 -0.1048 0.0000 0.0000 0.0000 86.1404 -0.4944 45.0317 -124.6990 54.9219 -89.5378 0.0000 -0.0000 -11.4334 -30.5284 34.1211 -18.3040 7.1250 -0.0000 -0.0000 1.1712 8.2029 1.3266
